<svg id="Egg-Gradient-Shape" xmlns="http://www.w3.org/2000/svg" xmlns:xlink="http://www.w3.org/1999/xlink" width="1919" height="678" viewBox="0 0 1919 678">
  <metadata><?xpacket begin="﻿" id="W5M0MpCehiHzreSzNTczkc9d"?>
<x:xmpmeta xmlns:x="adobe:ns:meta/" x:xmptk="Adobe XMP Core 5.6-c140 79.160451, 2017/05/06-01:08:21        ">
   <rdf:RDF xmlns:rdf="http://www.w3.org/1999/02/22-rdf-syntax-ns#">
      <rdf:Description rdf:about=""/>
   </rdf:RDF>
</x:xmpmeta>
                                                                                                    
                                                                                                    
                                                                                                    
                                                                                                    
                                                                                                    
                                                                                                    
                                                                                                    
                                                                                                    
                                                                                                    
                                                                                                    
                                                                                                    
                                                                                                    
                                                                                                    
                                                                                                    
                                                                                                    
                                                                                                    
                                                                                                    
                                                                                                    
                                                                                                    
                                                                                                    
                           
<?xpacket end="w"?></metadata>
<defs>
    <style>
      .cls-1, .cls-2, .cls-3, .cls-4, .cls-5 {
        fill-rule: evenodd;
      }

      .cls-1 {
        fill: url(#linear-gradient);
      }

      .cls-2 {
        fill: url(#linear-gradient-2);
      }

      .cls-3 {
        fill: url(#linear-gradient-3);
      }

      .cls-4 {
        fill: url(#linear-gradient-4);
      }

      .cls-5 {
        fill: url(#linear-gradient-5);
      }
    </style>
    <linearGradient id="linear-gradient" x1="1009.408" y1="600.094" x2="1009.408" y2="434.125" gradientUnits="userSpaceOnUse">
      <stop offset="0" stop-color="#fff8f1"/>
      <stop offset="0.264" stop-color="#ffe8dc"/>
      <stop offset="1" stop-color="#f8cca6"/>
    </linearGradient>
    <linearGradient id="linear-gradient-2" x1="889.922" y1="591.969" x2="889.922" y2="435.156" gradientUnits="userSpaceOnUse">
      <stop offset="0" stop-color="#fff8f1"/>
      <stop offset="0.264" stop-color="#ffe8dc"/>
      <stop offset="1" stop-color="#e7c09f"/>
    </linearGradient>
    <linearGradient id="linear-gradient-3" x1="961.5" y1="1081" x2="961.5" y2="516.719" gradientUnits="userSpaceOnUse">
      <stop offset="0" stop-color="#fceeae"/>
      <stop offset="1" stop-color="#fff8de"/>
    </linearGradient>
    <linearGradient id="linear-gradient-4" x1="1046.047" y1="402" x2="1046.047" y2="603" gradientUnits="userSpaceOnUse">
      <stop offset="0" stop-color="#f4c79c"/>
      <stop offset="0.705" stop-color="#d38b48"/>
      <stop offset="1" stop-color="#bc6a1d"/>
    </linearGradient>
    <linearGradient id="linear-gradient-5" x1="867.157" y1="595.281" x2="867.157" y2="409.312" gradientUnits="userSpaceOnUse">
      <stop offset="0" stop-color="#bc6a1d"/>
      <stop offset="0.295" stop-color="#d38b48"/>
      <stop offset="1" stop-color="#f4c79c"/>
    </linearGradient>
  </defs>
  <g>
    <path class="cls-1" d="M962.507,434.125s-30.715,21.534-19.337,56.839S943.8,539.7,943.8,539.7l7.633,11.541s22.9,7.418,25.042,18.352,9.877,20.881,9.877,20.881,11.088-6.065,21.812-3.953c0.48,7.393,5.91,10.9,11.78,12.511a19.866,19.866,0,0,1,15.36,1.081l42.88-100.8Z" transform="translate(-1 -402)"/>
    <path class="cls-2" d="M951.2,435.155s-0.613,16.531-19.793,34.64c-1.84,6.251-7.491,15.845-7.491,15.845l-8.012,2.6-4.4,14.943L903.572,514l-8.312,6.421-7.138-1.911-5.494,16.938s7.72,5.388,5.609,13.438,4.079,24.967,4.079,24.967a28.92,28.92,0,0,1-12,14.971,23.162,23.162,0,0,1-18.186,2.216L828.655,447.086Z" transform="translate(-1 -402)"/>
  </g>
  <path id="Shape_5_copy" data-name="Shape 5 copy" class="cls-3" d="M841,533s80.851,67.2,183,6,36,23,36,23l-23,38s-103.122-51.969-81,164,738.2,306.36,966,317c-114.43-.99-1921-2-1921-2s978.133,19.17,919-441c-14.737-68.936-58-46-58-46Z" transform="translate(-1 -402)"/>
  <g>
    <path class="cls-4" d="M957.1,435.761s87.318-68.668,150.338-10.155c61.17,56.783,9.65,141.524-48.94,162.468L1033.52,603l0.17-15.966s-24.04-12.812-28.27-14.426-6.954-.548-6.954-0.548,8.054-24.785,7.174-26.926-11.189-5.749-11.189-5.749-2.517-9.81,1.915-11.19,4.374-3.092,4.374-3.092-9.743-22.867-.51-26.958,7.71-7.641,7.71-7.641l-1.01-5.291-0.06-10.887-13.6.876s3.194-20.824-5.095-22.623S984.13,439.965,957.1,435.761Z" transform="translate(-1 -402)"/>
    <path class="cls-5" d="M956.34,435.973s-94.608-64.393-159.108,6.885S849.979,589.777,864.4,595.272c-2.551-17.061-2.876-25.7-2.876-25.7l-2.271-4.234,14.874-18.387-9.518-7.4,7.9-18.413-2.521-28.9s5.9-16.545,22.34-12.706c11.192-4.184,8.453-6.923,16.6-5.876s16.545-6.5,16.545-6.5,13.175-11.467,16.651-19.808S956.34,435.973,956.34,435.973Z" transform="translate(-1 -402)"/>
  </g>
</svg>
