<svg xmlns="http://www.w3.org/2000/svg" width="1915" height="600" viewBox="0 0 1915 600">
  <metadata><?xpacket begin="﻿" id="W5M0MpCehiHzreSzNTczkc9d"?>
<x:xmpmeta xmlns:x="adobe:ns:meta/" x:xmptk="Adobe XMP Core 5.6-c140 79.160451, 2017/05/06-01:08:21        ">
   <rdf:RDF xmlns:rdf="http://www.w3.org/1999/02/22-rdf-syntax-ns#">
      <rdf:Description rdf:about=""/>
   </rdf:RDF>
</x:xmpmeta>
                                                                                                    
                                                                                                    
                                                                                                    
                                                                                                    
                                                                                                    
                                                                                                    
                                                                                                    
                                                                                                    
                                                                                                    
                                                                                                    
                                                                                                    
                                                                                                    
                                                                                                    
                                                                                                    
                                                                                                    
                                                                                                    
                                                                                                    
                                                                                                    
                                                                                                    
                                                                                                    
                           
<?xpacket end="w"?></metadata>
<defs>
    <style>
      .cls-1 {
        fill: #fedc56;
        fill-rule: evenodd;
      }
    </style>
    <filter id="f1" x="0" y="0" width="200%" height="200%">
      <feGaussianBlur in="SourceAlpha" stdDeviation="10"/> <!-- stdDeviation is how much to blur -->
      <feOffset dx="0" dy="2" result="offsetblur"/> <!-- how much to offset -->
      <feComponentTransfer>
        <feFuncA type="linear" slope="0.3"/> <!-- slope is the opacity of the shadow -->
      </feComponentTransfer>
      <feMerge> 
        <feMergeNode/> <!-- this contains the offset blurred image -->
        <feMergeNode in="SourceGraphic"/> <!-- this contains the element that the filter is applied to -->
      </feMerge>
    </filter>
  </defs>
  <path filter="url(#f1)" id="Yolk1" class="cls-1" d="M5,102s228.669,10.214,301,81,97.879,155.146,95,170-8.412,100.736-20,136,16.056,45,37,45,37.063-10.786,26-49-36.235-144.3-5-185,76.6-111.093,114-116,90.68-24.642,137,47,41,114,41,114,8.139,110.988-15,163,8.267,64.465,21,62,54.713-2.306,27-66-14.973-157.811,0-174,32.456-80.057,54-79,43.11,27.077,42,42,40.384,119.191,32,161-15.06,63.427,11,63,14.373-47.976,9-60,18.758-128.93,54-135,19.357,17.81,96-25,66,87,66,87-5.78,114.115-11,192c-2.08,30.992-10.86,55.52-13,67-7.53,40.332,64.43,42.136,62,6s-8.59-35.083-19-71c-8.12-28-13.39-187.422-7-235s29.5-83.908,49-81,77.51-42.917,84,24,11.68,189.762-7,234,3.96,49.707,21,50,40.9-8.739,23-58-15.82-220.47-2-240c17.36-24.532,33.11-51,75-63s20.97,61.467,59,73c48.51,14.714,20.41-60.9,38-78s40.96-68.435,78-4,23.28,147.406,12,173-1.18,67.4,31,63,27-57,27-57-44.58-100.38-5-189,292.38-87.715,301-87C1077.15,102.615,5,102,5,102Z" transform="translate(-5 -102)"/>
</svg>
